<svg xmlns="http://www.w3.org/2000/svg">
  <symbol id="plus" viewBox="0 0 20 20" stroke="currentColor">
    <path d="M5 10.0002H15.0006M10.0002 5V15.0006" strokeWidth="1.5" strokeLinecap="round" strokeLinejoin="round"/>
  </symbol>
  <symbol id="download" viewBox="0 0 20 20" fill="none" stroke="currentColor">
    <path d="M16.667 13.3333V15.4166C16.667 16.1069 16.1074 16.6666 15.417 16.6666H4.58295C3.89259 16.6666 3.33295 16.1069 3.33295 15.4166V13.3333M10.0013 13.3333L10.0013 3.33325M6.14547 9.47942L9.99951 13.331L13.8538 9.47942" strokeWidth="1.5" strokeLinecap="round" strokeLinejoin="round"/>
  </symbol>
  <symbol id="search" viewBox="0 0 20 20" fill="currentColor">
    <path fillRule="evenodd" clipRule="evenodd" d="M3.04199 9.37336937363C3.04199 5.87693 5.87735 3.04199 9.37533 3.04199C12.8733 3.04199 15.7087 5.87693 15.7087 9.37363C15.7087 12.8703 12.8733 15.7053 9.37533 15.7053C5.87735 15.7053 3.04199 12.8703 3.04199 9.37363ZM9.37533 1.54199C5.04926 1.54199 1.54199 5.04817 1.54199 9.37363C1.54199 13.6991 5.04926 17.2053 9.37533 17.2053C11.2676 17.2053 13.0032 16.5344 14.3572 15.4176L17.1773 18.238C17.4702 18.5309 17.945 18.5309 18.2379 18.238C18.5308 17.9451 18.5309 17.4703 18.238 17.1773L15.4182 14.3573C16.5367 13.0033 17.2087 11.2669 17.2087 9.37363C17.2087 5.04817 13.7014 1.54199 9.37533 1.54199Z"/>
  </symbol>
  <symbol id="filter" viewBox="0 0 20 20" fill="none" stroke="currentColor">
    <path strokeWidth="1.5" strokeLinecap="round" strokeLinejoin="round" d="M14.6537 5.90414C14.6537 4.48433 13.5027 3.33331 12.0829 3.33331C10.6631 3.33331 9.51206 4.48433 9.51204 5.90415M14.6537 5.90414C14.6537 7.32398 13.5027 8.47498 12.0829 8.47498C10.663 8.47498 9.51204 7.32398 9.51204 5.90415M14.6537 5.90414L17.7087 5.90411M9.51204 5.90415L2.29199 5.90411M5.34694 14.0958C5.34694 12.676 6.49794 11.525 7.91777 11.525C9.33761 11.525 10.4886 12.676 10.4886 14.0958M5.34694 14.0958C5.34694 15.5156 6.49794 16.6666 7.91778 16.6666C9.33761 16.6666 10.4886 15.5156 10.4886 14.0958M5.34694 14.0958L2.29199 14.0958M10.4886 14.0958L17.7087 14.0958"/>
  </symbol>
  <symbol id="right-arrow" viewBox="0 0 20 20" fill="currentColor">
    <path fillRule="evenodd" clipRule="evenodd" d="M17.4165 9.9986C17.4168 10.1909 17.3437 10.3832 17.197 10.53L12.2004 15.5301C11.9076 15.8231 11.4327 15.8233 11.1397 15.5305C10.8467 15.2377 10.8465 14.7629 11.1393 14.4699L14.8594 10.7472L3.33203 10.7472C2.91782 10.7472 2.58203 10.4114 2.58203 9.99715C2.58203 9.58294 2.91782 9.24715 3.33203 9.24715L14.854 9.24715L11.1393 5.53016C10.8465 5.23717 10.8467 4.7623 11.1397 4.4695C11.4327 4.1767 11.9075 4.17685 12.2003 4.46984L17.1578 9.43049C17.3163 9.568 17.4165 9.77087 17.4165 9.99715C17.4165 9.99763 17.4165 9.99812 17.4165 9.9986Z"/>
  </symbol>
  <symbol id="left-arrow" viewBox="0 0 20 20" fill="currentColor" >
    <path fillRule="evenodd" clipRule="evenodd" d="M2.58203 9.99868C2.58174 10.1909 2.6549 10.3833 2.80152 10.53L7.79818 15.5301C8.09097 15.8231 8.56584 15.8233 8.85883 15.5305C9.15183 15.2377 9.152 14.7629 8.85921 14.4699L5.13911 10.7472L16.6665 10.7472C17.0807 10.7472 17.4165 10.4114 17.4165 9.99715C17.4165 9.58294 17.0807 9.24715 16.6665 9.24715L5.14456 9.24715L8.85919 5.53016C9.15199 5.23717 9.15184 4.7623 8.85885 4.4695C8.56587 4.1767 8.09099 4.17685 7.79819 4.46984L2.84069 9.43049C2.68224 9.568 2.58203 9.77087 2.58203 9.99715C2.58203 9.99766 2.58203 9.99817 2.58203 9.99868Z"/>
  </symbol>
  <symbol id="more-horizontal" viewBox="0 0 24 24" fill="currentColor">
    <path fillRule="evenodd" clipRule="evenodd" d="M5.99902 10.245C6.96552 10.245 7.74902 11.0285 7.74902 11.995V12.005C7.74902 12.9715 6.96552 13.755 5.99902 13.755C5.03253 13.755 4.24902 12.9715 4.24902 12.005V11.995C4.24902 11.0285 5.03253 10.245 5.99902 10.245ZM17.999 10.245C18.9655 10.245 19.749 11.0285 19.749 11.995V12.005C19.749 12.9715 18.9655 13.755 17.999 13.755C17.0325 13.755 16.249 12.9715 16.249 12.005V11.995C16.249 11.0285 17.0325 10.245 17.999 10.245ZM13.749 11.995C13.749 11.0285 12.9655 10.245 11.999 10.245C11.0325 10.245 10.249 11.0285 10.249 11.995V12.005C10.249 12.9715 11.0325 13.755 11.999 13.755C12.9655 13.755 13.749 12.9715 13.749 12.005V11.995Z"/>
  </symbol>
  <symbol id="check" viewBox="0 0 12 12" fill="none">
    <path d="M10 3L4.5 8.5L2 6" stroke="white" strokeWidth="1.6666" strokeLinecap="round" strokeLinejoin="round"/>
  </symbol>
</svg>