<svg xmlns="http://www.w3.org/2000/svg">
  <symbol id="plus" viewBox="0 0 20 20" stroke="currentColor">
    <path d="M5 10.0002H15.0006M10.0002 5V15.0006" strokeWidth="1.5" strokeLinecap="round" strokeLinejoin="round"/>
  </symbol>
  <symbol id="download" viewBox="0 0 20 20" fill="none" stroke="currentColor">
    <path d="M16.667 13.3333V15.4166C16.667 16.1069 16.1074 16.6666 15.417 16.6666H4.58295C3.89259 16.6666 3.33295 16.1069 3.33295 15.4166V13.3333M10.0013 13.3333L10.0013 3.33325M6.14547 9.47942L9.99951 13.331L13.8538 9.47942" strokeWidth="1.5" strokeLinecap="round" strokeLinejoin="round"/>
  </symbol>
  <symbol id="search" viewBox="0 0 20 20" fill="currentColor">
    <path fillRule="evenodd" clipRule="evenodd" d="M3.04199 9.37336937363C3.04199 5.87693 5.87735 3.04199 9.37533 3.04199C12.8733 3.04199 15.7087 5.87693 15.7087 9.37363C15.7087 12.8703 12.8733 15.7053 9.37533 15.7053C5.87735 15.7053 3.04199 12.8703 3.04199 9.37363ZM9.37533 1.54199C5.04926 1.54199 1.54199 5.04817 1.54199 9.37363C1.54199 13.6991 5.04926 17.2053 9.37533 17.2053C11.2676 17.2053 13.0032 16.5344 14.3572 15.4176L17.1773 18.238C17.4702 18.5309 17.945 18.5309 18.2379 18.238C18.5308 17.9451 18.5309 17.4703 18.238 17.1773L15.4182 14.3573C16.5367 13.0033 17.2087 11.2669 17.2087 9.37363C17.2087 5.04817 13.7014 1.54199 9.37533 1.54199Z"/>
  </symbol>
  <symbol id="filter" viewBox="0 0 20 20" fill="none" stroke="currentColor">
    <path strokeWidth="1.5" strokeLinecap="round" strokeLinejoin="round" d="M14.6537 5.90414C14.6537 4.48433 13.5027 3.33331 12.0829 3.33331C10.6631 3.33331 9.51206 4.48433 9.51204 5.90415M14.6537 5.90414C14.6537 7.32398 13.5027 8.47498 12.0829 8.47498C10.663 8.47498 9.51204 7.32398 9.51204 5.90415M14.6537 5.90414L17.7087 5.90411M9.51204 5.90415L2.29199 5.90411M5.34694 14.0958C5.34694 12.676 6.49794 11.525 7.91777 11.525C9.33761 11.525 10.4886 12.676 10.4886 14.0958M5.34694 14.0958C5.34694 15.5156 6.49794 16.6666 7.91778 16.6666C9.33761 16.6666 10.4886 15.5156 10.4886 14.0958M5.34694 14.0958L2.29199 14.0958M10.4886 14.0958L17.7087 14.0958"/>
  </symbol>
  <symbol id="right-arrow" viewBox="0 0 20 20" fill="currentColor">
    <path fillRule="evenodd" clipRule="evenodd" d="M17.4165 9.9986C17.4168 10.1909 17.3437 10.3832 17.197 10.53L12.2004 15.5301C11.9076 15.8231 11.4327 15.8233 11.1397 15.5305C10.8467 15.2377 10.8465 14.7629 11.1393 14.4699L14.8594 10.7472L3.33203 10.7472C2.91782 10.7472 2.58203 10.4114 2.58203 9.99715C2.58203 9.58294 2.91782 9.24715 3.33203 9.24715L14.854 9.24715L11.1393 5.53016C10.8465 5.23717 10.8467 4.7623 11.1397 4.4695C11.4327 4.1767 11.9075 4.17685 12.2003 4.46984L17.1578 9.43049C17.3163 9.568 17.4165 9.77087 17.4165 9.99715C17.4165 9.99763 17.4165 9.99812 17.4165 9.9986Z"/>
  </symbol>
  <symbol id="left-arrow" viewBox="0 0 20 20" fill="currentColor" >
    <path fillRule="evenodd" clipRule="evenodd" d="M2.58203 9.99868C2.58174 10.1909 2.6549 10.3833 2.80152 10.53L7.79818 15.5301C8.09097 15.8231 8.56584 15.8233 8.85883 15.5305C9.15183 15.2377 9.152 14.7629 8.85921 14.4699L5.13911 10.7472L16.6665 10.7472C17.0807 10.7472 17.4165 10.4114 17.4165 9.99715C17.4165 9.58294 17.0807 9.24715 16.6665 9.24715L5.14456 9.24715L8.85919 5.53016C9.15199 5.23717 9.15184 4.7623 8.85885 4.4695C8.56587 4.1767 8.09099 4.17685 7.79819 4.46984L2.84069 9.43049C2.68224 9.568 2.58203 9.77087 2.58203 9.99715C2.58203 9.99766 2.58203 9.99817 2.58203 9.99868Z"/>
  </symbol>
  <symbol id="more-horizontal" viewBox="0 0 24 24" fill="currentColor">
    <path fillRule="evenodd" clipRule="evenodd" d="M5.99902 10.245C6.96552 10.245 7.74902 11.0285 7.74902 11.995V12.005C7.74902 12.9715 6.96552 13.755 5.99902 13.755C5.03253 13.755 4.24902 12.9715 4.24902 12.005V11.995C4.24902 11.0285 5.03253 10.245 5.99902 10.245ZM17.999 10.245C18.9655 10.245 19.749 11.0285 19.749 11.995V12.005C19.749 12.9715 18.9655 13.755 17.999 13.755C17.0325 13.755 16.249 12.9715 16.249 12.005V11.995C16.249 11.0285 17.0325 10.245 17.999 10.245ZM13.749 11.995C13.749 11.0285 12.9655 10.245 11.999 10.245C11.0325 10.245 10.249 11.0285 10.249 11.995V12.005C10.249 12.9715 11.0325 13.755 11.999 13.755C12.9655 13.755 13.749 12.9715 13.749 12.005V11.995Z"/>
  </symbol>
  <symbol id="check" viewBox="0 0 12 12" fill="none">
    <path d="M10 3L4.5 8.5L2 6" stroke="white" strokeWidth="1.6666" strokeLinecap="round" strokeLinejoin="round"/>
  </symbol>
  <symbol id="user" viewBox="0 0 24 24" fill="currentColor">
    <path fillRule="evenodd" clipRule="evenodd" d="M12 3.5C7.30558 3.5 3.5 7.30558 3.5 12C3.5 14.1526 4.3002 16.1184 5.61936 17.616C6.17279 15.3096 8.24852 13.5955 10.7246 13.5955H13.2746C15.7509 13.5955 17.8268 15.31 18.38 17.6167C19.6996 16.119 20.5 14.153 20.5 12C20.5 7.30558 16.6944 3.5 12 3.5ZM17.0246 18.8566V18.8455C17.0246 16.7744 15.3457 15.0955 13.2746 15.0955H10.7246C8.65354 15.0955 6.97461 16.7744 6.97461 18.8455V18.856C8.38223 19.8895 10.1198 20.5 12 20.5C13.8798 20.5 15.6171 19.8898 17.0246 18.8566ZM2 12C2 6.47715 6.47715 2 12 2C17.5228 2 22 6.47715 22 12C22 17.5228 17.5228 22 12 22C6.47715 22 2 17.5228 2 12ZM11.9991 7.25C10.8847 7.25 9.98126 8.15342 9.98126 9.26784C9.98126 10.3823 10.8847 11.2857 11.9991 11.2857C13.1135 11.2857 14.0169 10.3823 14.0169 9.26784C14.0169 8.15342 13.1135 7.25 11.9991 7.25ZM8.48126 9.26784C8.48126 7.32499 10.0563 5.75 11.9991 5.75C13.9419 5.75 15.5169 7.32499 15.5169 9.26784C15.5169 11.2107 13.9419 12.7857 11.9991 12.7857C10.0563 12.7857 8.48126 11.2107 8.48126 9.26784Z"/>
  </symbol>
  <symbol id="settings" viewBox="0 0 24 24" fill="currentColor">
    <path fillRule="evenodd" clipRule="evenodd" d="M10.4858 3.5L13.5182 3.5C13.9233 3.5 14.2518 3.82851 14.2518 4.23377C14.2518 5.9529 16.1129 7.02795 17.602 6.1682C17.9528 5.96567 18.4014 6.08586 18.6039 6.43667L20.1203 9.0631C20.3229 9.41407 20.2027 9.86286 19.8517 10.0655C18.3625 10.9253 18.3625 13.0747 19.8517 13.9345C20.2026 14.1372 20.3229 14.5859 20.1203 14.9369L18.6039 17.5634C18.4013 17.9142 17.9528 18.0344 17.602 17.8318C16.1129 16.9721 14.2518 18.0471 14.2518 19.7663C14.2518 20.1715 13.9233 20.5 13.5182 20.5H10.4858C10.0804 20.5 9.75182 20.1714 9.75182 19.766C9.75182 18.0461 7.88983 16.9717 6.40067 17.8314C6.04945 18.0342 5.60037 17.9139 5.39767 17.5628L3.88167 14.937C3.67903 14.586 3.79928 14.1372 4.15026 13.9346C5.63949 13.0748 5.63946 10.9253 4.15025 10.0655C3.79926 9.86282 3.67901 9.41401 3.88165 9.06303L5.39764 6.43725C5.60034 6.08617 6.04943 5.96581 6.40065 6.16858C7.88982 7.02836 9.75182 5.9539 9.75182 4.23399C9.75182 3.82862 10.0804 3.5 10.4858 3.5ZM13.5182 2L10.4858 2C9.25201 2 8.25182 3.00019 8.25182 4.23399C8.25182 4.79884 7.64013 5.15215 7.15065 4.86955C6.08213 4.25263 4.71559 4.61859 4.0986 5.68725L2.58261 8.31303C1.96575 9.38146 2.33183 10.7477 3.40025 11.3645C3.88948 11.647 3.88947 12.3531 3.40026 12.6355C2.33184 13.2524 1.96578 14.6186 2.58263 15.687L4.09863 18.3128C4.71562 19.3814 6.08215 19.7474 7.15067 19.1305C7.64015 18.8479 8.25182 19.2012 8.25182 19.766C8.25182 20.9998 9.25201 22 10.4858 22H13.5182C14.7519 22 15.7518 20.9998 15.7518 19.7663C15.7518 19.2015 16.3632 18.8487 16.852 19.1309C17.9202 19.7476 19.2862 19.3816 19.9029 18.3134L21.4193 15.6869C22.0361 14.6185 21.6701 13.2523 20.6017 12.6355C20.1125 12.3531 20.1125 11.647 20.6017 11.3645C21.6701 10.7477 22.0362 9.38152 21.4193 8.3131L19.903 5.68667C19.2862 4.61842 17.9202 4.25241 16.852 4.86917C16.3632 5.15138 15.7518 4.79856 15.7518 4.23377C15.7518 3.00024 14.7519 2 13.5182 2ZM9.6659 11.9999C9.6659 10.7103 10.7113 9.66493 12.0009 9.66493C13.2905 9.66493 14.3359 10.7103 14.3359 11.9999C14.3359 13.2895 13.2905 14.3349 12.0009 14.3349C10.7113 14.3349 9.6659 13.2895 9.6659 11.9999ZM12.0009 8.16493C9.88289 8.16493 8.1659 9.88191 8.1659 11.9999C8.1659 14.1179 9.88289 15.8349 12.0009 15.8349C14.1189 15.8349 15.8359 14.1179 15.8359 11.9999C15.8359 9.88191 14.1189 8.16493 12.0009 8.16493Z"/>
  </symbol>
  <symbol id="info" viewBox="0 0 24 24" fill="currentColor">
    <path fillRule="evenodd" clipRule="evenodd" d="M3.5 12C3.5 7.30558 7.30558 3.5 12 3.5C16.6944 3.5 20.5 7.30558 20.5 12C20.5 16.6944 16.6944 20.5 12 20.5C7.30558 20.5 3.5 16.6944 3.5 12ZM12 2C6.47715 2 2 6.47715 2 12C2 17.5228 6.47715 22 12 22C17.5228 22 22 17.5228 22 12C22 6.47715 17.5228 2 12 2ZM11.0991 7.52507C11.0991 8.02213 11.5021 8.42507 11.9991 8.42507H12.0001C12.4972 8.42507 12.9001 8.02213 12.9001 7.52507C12.9001 7.02802 12.4972 6.62507 12.0001 6.62507H11.9991C11.5021 6.62507 11.0991 7.02802 11.0991 7.52507ZM12.0001 17.3714C11.5859 17.3714 11.2501 17.0356 11.2501 16.6214V10.9449C11.2501 10.5307 11.5859 10.1949 12.0001 10.1949C12.4143 10.1949 12.7501 10.5307 12.7501 10.9449V16.6214C12.7501 17.0356 12.4143 17.3714 12.0001 17.3714Z"/>
  </symbol>
  <symbol id="logout" viewBox="0 0 24 24" fill="currentColor">
    <path fillRule="evenodd" clipRule="evenodd" d="M15.1007 19.247C14.6865 19.247 14.3507 18.9112 14.3507 18.497L14.3507 14.245H12.8507V18.497C12.8507 19.7396 13.8581 20.747 15.1007 20.747H18.5007C19.7434 20.747 20.7507 19.7396 20.7507 18.497L20.7507 5.49609C20.7507 4.25345 19.7433 3.24609 18.5007 3.24609H15.1007C13.8581 3.24609 12.8507 4.25345 12.8507 5.49609V9.74501L14.3507 9.74501V5.49609C14.3507 5.08188 14.6865 4.74609 15.1007 4.74609L18.5007 4.74609C18.9149 4.74609 19.2507 5.08188 19.2507 5.49609L19.2507 18.497C19.2507 18.9112 18.9149 19.247 18.5007 19.247H15.1007ZM3.25073 11.9984C3.25073 12.2144 3.34204 12.4091 3.48817 12.546L8.09483 17.1556C8.38763 17.4485 8.86251 17.4487 9.15549 17.1559C9.44848 16.8631 9.44863 16.3882 9.15583 16.0952L5.81116 12.7484L16.0007 12.7484C16.4149 12.7484 16.7507 12.4127 16.7507 11.9984C16.7507 11.5842 16.4149 11.2484 16.0007 11.2484L5.81528 11.2484L9.15585 7.90554C9.44864 7.61255 9.44847 7.13767 9.15547 6.84488C8.86248 6.55209 8.3876 6.55226 8.09481 6.84525L3.52309 11.4202C3.35673 11.5577 3.25073 11.7657 3.25073 11.9984Z"/>
  </symbol>
  <symbol id="dropdown-arrow" viewBox="0 0 18 20" fill="none" stroke="currentColor">
    <path d="M4.3125 8.65625L9 13.3437L13.6875 8.65625" strokeWidth="1.5" strokeLinecap="round" strokeLinejoin="round"/>
  </symbol>
  <symbol id="save" viewBox="0 0 20 20" fill="none" stroke="currentColor">
    <path d="M13.333 16.6666V12.9166C13.333 12.2262 12.7734 11.6666 12.083 11.6666L7.91634 11.6666C7.22599 11.6666 6.66634 12.2262 6.66634 12.9166L6.66635 16.6666M9.99967 5.83325H6.66634M15.4163 16.6666H4.58301C3.89265 16.6666 3.33301 16.1069 3.33301 15.4166V4.58325C3.33301 3.8929 3.89265 3.33325 4.58301 3.33325H12.8171C13.1483 3.33325 13.4659 3.46468 13.7003 3.69869L16.2995 6.29384C16.5343 6.52832 16.6662 6.84655 16.6662 7.17841L16.6663 15.4166C16.6663 16.1069 16.1066 16.6666 15.4163 16.6666Z" strokeWidth="1.5" strokeLinecap="round" strokeLinejoin="round"/>
  </symbol>
  <symbol id="logo" viewBox="0 0 653 170" fill="currentColor">
    <path d="M591.53 107.68H602V56.0905H591.57L591.61 95.5605L512.96 56.0005H502.57L502.7 107.82H513.05V67.9405L591.53 107.69V107.68ZM407.38 107.8C399.1 107.8 394.96 103.65 394.96 95.3305V68.4905C394.96 60.2105 399.06 56.0605 407.26 56.0605H481.74C490.15 56.0605 494.36 60.3005 494.36 68.7805V95.5805C494.36 103.64 490.29 107.67 482.15 107.67L407.39 107.8H407.38ZM483.92 93.3605V70.7605C483.92 67.8605 482.53 66.4205 479.78 66.4205H409.53C406.77 66.4205 405.39 67.7805 405.39 70.4805V93.2505C405.39 96.0605 406.78 97.4605 409.53 97.4605H479.87C482.57 97.4605 483.93 96.0905 483.93 93.3605H483.92ZM386.56 95.1005C386.56 103.57 382.33 107.81 373.9 107.81H287.17L287.3 97.4605H372.04C374.78 97.4605 376.17 96.2005 376.22 93.6905V91.1905C376.28 88.4805 374.85 87.1205 371.97 87.1205H299.71C291.36 87.1205 287.17 83.2505 287.17 75.5005V68.6405C287.17 60.2605 291.27 56.0705 299.47 56.0705L386.57 55.9905V66.3405H301.7C298.97 66.3405 297.6 67.7305 297.6 70.4805V72.5405C297.6 75.3505 298.94 76.7705 301.61 76.7705H373.9C382.34 76.7705 386.56 80.8505 386.56 89.0205V95.1005ZM263.91 66.3305H189.84V80.8305H264.32C267.05 80.8305 268.43 79.3705 268.46 76.4605V70.4805C268.49 67.7105 266.98 66.3305 263.91 66.3305ZM278.96 107.8H266.37L253.8 91.1805H189.84V107.8H179.41L179.54 55.9805H266.51C274.71 55.9805 278.81 60.0505 278.81 68.2105V78.8305C278.81 87.0705 274.64 91.1805 266.3 91.1805L278.97 107.8H278.96ZM160.41 107.64V55.9905H171.01V107.64H160.41ZM137.51 107.72L50.6201 107.8V56.0705H137.76C145.99 56.0705 150.1 60.2005 150.1 68.4505V74.5005C150.1 78.7505 147.95 81.2305 143.67 81.9105C147.98 82.5705 150.13 84.8905 150.1 88.8805V95.3805C150.04 103.61 145.85 107.72 137.51 107.72ZM135.49 97.5405C138.22 97.5405 139.62 96.1505 139.67 93.3805V91.3405C139.73 88.5105 138.41 87.1005 135.73 87.1005H60.9001V97.5305H135.49V97.5405ZM61.0601 76.7605H135.5C138.23 76.7605 139.63 75.3305 139.68 72.4605V70.4505C139.74 67.7505 138.29 66.4105 135.38 66.4105H61.0601V76.7605Z" class="fill-gray-900 dark:fill-white"></path><path d="M652.13 163.31H560.64V155.66H644.48V8.13047H8.16998L8.76998 120.08L1.11998 120.13L0.47998 0.480469H652.13V163.31Z" fill="#F3C800"></path><path d="M523.14 155.05C523 152.98 522.14 151.36 520.58 150.16C519.31 149.18 517.46 148.69 515.05 148.69C512.5 148.69 510.51 149.29 509.09 150.48C507.67 151.68 506.96 153.2 506.96 155.04H523.15L523.14 155.05ZM506.95 158.15C507.09 160.97 508.02 163.04 509.72 164.34C511 165.32 512.85 165.81 515.25 165.81C518.24 165.81 520.29 165.32 521.43 164.34C522.28 163.58 523.07 162.55 523.77 161.24L527.39 162.71C526.54 164.23 525.41 165.53 523.98 166.62C522.14 168.03 519.23 168.74 515.25 168.74C511.71 168.74 508.94 167.98 506.94 166.46C504.1 164.28 502.69 161.24 502.69 157.33C502.69 153.21 503.96 150.16 506.52 148.21C508.65 146.58 511.55 145.76 515.24 145.76C518.93 145.76 521.64 146.57 523.76 148.21C526.31 150.16 527.6 153.21 527.6 157.33V158.15H506.94H506.95ZM450.94 168.41V146.08H455.2V155.05H463.51C466.63 155.05 468.98 155.65 470.54 156.84C472.09 158.04 472.88 159.61 472.88 161.57C472.88 163.74 472.1 165.42 470.54 166.62C468.98 167.82 466.63 168.41 463.51 168.41H450.94ZM455.2 158.15V165.32H463.51C465.5 165.32 466.84 165.05 467.55 164.51C468.4 163.86 468.83 162.88 468.83 161.58C468.83 160.6 468.4 159.79 467.55 159.13C466.71 158.48 465.35 158.16 463.51 158.16H455.2V158.15ZM392.37 165.15C394.5 165.05 395.99 164.66 396.84 164.01C397.84 163.25 398.33 161.46 398.33 158.63V146.08H417.71V168.41H413.45V149.17H402.59V158.46C402.59 162.26 401.81 164.77 400.25 165.96C398.4 167.37 395.78 168.19 392.37 168.4V165.14V165.15ZM359.58 155.05C359.43 152.98 358.58 151.36 357.02 150.16C355.75 149.18 353.9 148.69 351.49 148.69C348.94 148.69 346.95 149.29 345.53 150.48C344.11 151.68 343.4 153.2 343.4 155.04H359.59L359.58 155.05ZM343.39 158.15C343.53 160.97 344.46 163.04 346.16 164.34C347.44 165.32 349.29 165.81 351.69 165.81C354.68 165.81 356.73 165.32 357.87 164.34C358.72 163.58 359.51 162.55 360.21 161.24L363.83 162.71C362.98 164.23 361.85 165.53 360.42 166.62C358.58 168.03 355.67 168.74 351.69 168.74C348.15 168.74 345.38 167.98 343.39 166.46C340.55 164.28 339.14 161.24 339.14 157.33C339.14 153.21 340.41 150.16 342.97 148.21C345.1 146.58 348 145.76 351.69 145.76C355.38 145.76 358.09 146.57 360.21 148.21C362.76 150.16 364.05 153.21 364.05 157.33V158.15H343.39ZM308.25 149.18H298.88V168.42H294.62V149.18H285.25V146.08H308.25V149.18ZM240.52 157.98C238.68 158.52 237.26 159.18 236.26 159.93C235.42 160.58 234.99 161.45 234.99 162.54C234.99 163.41 235.42 164.17 236.26 164.82C237.11 165.47 238.32 165.8 239.89 165.8C243.72 165.8 246.99 164.5 249.69 161.89V155.69C247.27 156.12 244.22 156.89 240.53 157.97L240.52 157.98ZM249.89 164.67C247.05 167.39 243.5 168.74 239.24 168.74C236.55 168.74 234.56 168.25 233.28 167.27C231.58 165.97 230.73 164.39 230.73 162.54C230.73 160.8 231.44 159.39 232.86 158.3C234.29 157.22 236.49 156.29 239.47 155.53C242.02 154.88 245.43 154.11 249.69 153.24C249.83 151.94 249.47 150.96 248.63 150.31C247.2 149.22 245.43 148.68 243.31 148.68C240.47 148.68 238.41 149.17 237.13 150.15C236.42 150.69 235.49 151.56 234.36 152.76L230.95 150.81C232.38 149.29 233.58 148.26 234.58 147.72C236.99 146.41 239.83 145.76 243.1 145.76C246.65 145.76 249.49 146.57 251.62 148.21C253.18 149.41 253.96 151.63 253.96 154.89V162.55C253.96 163.86 254.52 165.81 255.66 168.42H250.98C250.41 167.44 250.05 166.2 249.91 164.67H249.89ZM178.76 148.36C181.18 146.52 184.16 145.59 187.71 145.59C191.26 145.59 194.23 146.52 196.65 148.36C199.07 150.21 200.27 153.14 200.27 157.16C200.27 161.18 199.07 164.11 196.65 165.96C194.23 167.8 191.25 168.73 187.71 168.73C184.17 168.73 181.18 167.81 178.76 165.96C176.35 164.11 175.14 161.18 175.14 157.16C175.14 153.14 176.35 150.21 178.76 148.36ZM187.71 148.36C185.57 148.36 183.66 149.01 181.96 150.32C180.25 151.62 179.41 153.9 179.41 157.16C179.41 160.42 180.26 162.7 181.96 164C183.66 165.31 185.58 165.96 187.71 165.96C189.84 165.96 191.75 165.31 193.45 164C195.16 162.7 196.01 160.42 196.01 157.16C196.01 153.9 195.16 151.62 193.45 150.32C191.75 149.01 189.83 148.36 187.71 148.36ZM144.68 149.18H135.31V168.42H131.05V149.18H121.68V146.08H144.68V149.18ZM72.4799 158.31V165.32H83.3399C85.3299 165.32 86.6699 165.05 87.3899 164.51C88.0999 163.96 88.4499 163.15 88.4499 162.06C88.4499 160.86 87.9499 159.94 86.9599 159.29C85.9599 158.64 84.4699 158.31 82.4799 158.31H72.4799ZM82.4899 146.08C85.7599 146.08 88.1699 146.68 89.7299 147.88C91.0099 148.86 91.6499 150.1 91.6499 151.63C91.6499 153.16 91.1599 154.29 90.1599 155.05C89.4499 155.59 88.4599 156.09 87.1799 156.52C88.7399 156.96 89.9499 157.5 90.8099 158.15C92.0799 159.12 92.7199 160.48 92.7199 162.22C92.7199 164.18 92.1599 165.59 91.0199 166.46C89.3099 167.76 86.8299 168.41 83.5699 168.41H68.2299V146.08H82.4999H82.4899ZM82.2799 155.21C84.1199 155.21 85.6199 154.77 86.7499 153.9C87.1799 153.57 87.3999 152.98 87.3999 152.11C87.3999 151.35 87.0399 150.64 86.3299 150C85.7699 149.46 84.4899 149.18 82.4999 149.18H72.4999V155.22H82.2999L82.2799 155.21ZM22.4299 157.98C20.5899 158.52 19.1699 159.18 18.1699 159.93C17.3299 160.58 16.8999 161.45 16.8999 162.54C16.8999 163.41 17.3299 164.17 18.1699 164.82C19.0199 165.47 20.2299 165.8 21.7999 165.8C25.6299 165.8 28.8999 164.5 31.5899 161.89V155.69C29.1699 156.12 26.1199 156.89 22.4299 157.97V157.98ZM31.7999 164.67C28.9599 167.39 25.4099 168.74 21.1499 168.74C18.4599 168.74 16.4699 168.25 15.1899 167.27C13.4899 165.97 12.6399 164.39 12.6399 162.54C12.6399 160.8 13.3499 159.39 14.7699 158.3C16.1999 157.22 18.3999 156.29 21.3799 155.53C23.9299 154.88 27.3399 154.11 31.5999 153.24C31.7499 151.94 31.3799 150.96 30.5399 150.31C29.1099 149.22 27.3399 148.68 25.2199 148.68C22.3799 148.68 20.3199 149.17 19.0399 150.15C18.3299 150.69 17.3999 151.56 16.2699 152.76L12.8599 150.81C14.2899 149.29 15.4899 148.26 16.4899 147.72C18.8999 146.41 21.7399 145.76 24.9999 145.76C28.5499 145.76 31.3899 146.57 33.5199 148.21C35.0799 149.41 35.8599 151.63 35.8599 154.89V162.55C35.8599 163.86 36.4199 165.81 37.5599 168.42H32.8799C32.3099 167.44 31.9499 166.2 31.8099 164.67H31.7999Z" class="fill-gray-900 dark:fill-white"></path><path d="M171.01 55.5098H160.41C160.145 55.5098 159.93 55.7247 159.93 55.9898V107.64C159.93 107.905 160.145 108.12 160.41 108.12H171.01C171.275 108.12 171.49 107.905 171.49 107.64V55.9898C171.49 55.7247 171.275 55.5098 171.01 55.5098Z" class="fill-gray-900 dark:fill-white"></path>
  </symbol>
</svg>
